<?xml version="1.0" standalone="no"?>
<!DOCTYPE svg PUBLIC "-//W3C//DTD SVG 20010904//EN"
 "http://www.w3.org/TR/2001/REC-SVG-20010904/DTD/svg10.dtd">
<svg version="1.0" xmlns="http://www.w3.org/2000/svg"
 width="929.000000pt" height="1280.000000pt" viewBox="0 0 929.000000 1280.000000"
 preserveAspectRatio="xMidYMid meet">
<metadata>
Created by potrace 1.15, written by Peter Selinger 2001-2017
</metadata>
<g transform="translate(0.000000,1280.000000) scale(0.100000,-0.100000)"
fill="#000000" stroke="none">
<path d="M8390 12643 c-47 -1 -256 -7 -465 -13 -421 -12 -1115 -36 -1270 -45
-55 -3 -221 -10 -370 -15 -556 -21 -1258 -70 -1570 -111 -169 -22 -195 -32
-195 -76 0 -18 -5 -23 -26 -23 -14 0 -23 4 -19 10 12 20 -164 1 -213 -23 -18
-8 -37 -7 -87 6 -77 21 -134 21 -159 2 -25 -19 -40 -19 -82 1 -27 13 -47 15
-87 9 -53 -8 -105 -10 -142 -5 -11 1 -74 -1 -140 -5 -92 -6 -132 -14 -173 -32
-40 -17 -58 -21 -72 -13 -10 5 -33 10 -50 10 -18 0 -43 9 -57 20 -34 26 -130
27 -204 1 -48 -16 -59 -17 -99 -5 -49 15 -225 9 -247 -8 -6 -5 -34 -6 -63 -2
-33 4 -65 2 -90 -6 -32 -11 -44 -10 -83 5 -34 13 -61 15 -113 11 -213 -19
-280 -21 -312 -9 -13 5 -52 6 -85 2 -34 -5 -108 -5 -164 -2 -82 5 -107 3 -125
-9 -30 -20 -212 -18 -276 2 -39 12 -47 12 -77 -5 -30 -16 -37 -16 -57 -3 -17
10 -36 12 -68 7 -25 -5 -87 -13 -139 -19 -83 -9 -96 -8 -112 6 -16 14 -32 15
-101 9 -46 -4 -124 -8 -174 -10 -142 -5 -162 -11 -180 -54 -8 -19 -24 -46 -36
-58 -20 -22 -21 -30 -19 -335 3 -388 3 -405 -7 -442 -4 -17 -4 -69 1 -116 8
-85 9 -127 7 -355 -1 -66 1 -334 5 -595 9 -575 10 -625 7 -670 0 -19 0 -192 1
-385 2 -268 -1 -363 -12 -405 -11 -45 -11 -64 0 -110 8 -34 14 -148 16 -295 2
-132 5 -301 6 -375 1 -85 -2 -146 -10 -166 -7 -18 -8 -36 -3 -44 5 -8 9 -55 9
-105 1 -49 3 -136 5 -192 3 -58 0 -105 -5 -109 -5 -3 -2 -17 7 -34 11 -18 14
-34 9 -46 -19 -43 -26 -172 -11 -196 8 -13 7 -26 -3 -50 -8 -18 -14 -44 -13
-58 1 -14 4 -68 7 -120 3 -52 8 -171 10 -265 1 -93 6 -271 9 -395 10 -349 20
-1051 18 -1190 -4 -206 -3 -260 3 -329 8 -94 8 -93 6 -131 l-2 -35 -20 37
c-41 79 -107 88 -136 20 -26 -60 -34 -597 -36 -2617 -2 -1768 -1 -1842 16
-1869 38 -58 52 -59 487 -52 1618 26 3799 137 4216 215 78 15 104 63 63 115
-11 14 -17 26 -12 26 4 0 39 6 77 14 48 11 76 12 94 5 37 -14 99 -14 116 0 15
13 75 7 108 -10 11 -6 19 -5 24 2 4 7 24 9 50 6 29 -3 50 0 65 11 15 11 55 17
124 20 95 4 105 3 133 -18 22 -17 39 -21 60 -17 16 3 33 3 36 -1 11 -10 80 -1
88 11 11 19 176 24 208 7 29 -15 227 -11 241 6 15 18 79 18 105 0 13 -10 23
-11 31 -4 7 5 94 12 194 14 119 3 188 9 197 16 19 16 69 12 112 -9 38 -19 67
-20 250 -8 63 4 138 6 167 6 28 -1 54 3 58 9 3 5 17 7 30 4 12 -3 26 -1 29 4
4 7 17 7 39 0 17 -6 59 -12 92 -13 33 -2 104 -6 158 -10 80 -6 102 -4 115 8
16 14 49 27 82 34 8 1 29 -2 45 -7 17 -5 56 -12 87 -14 31 -3 65 -9 75 -14 10
-5 99 -8 203 -6 102 2 269 3 371 4 137 0 190 3 203 13 16 12 18 31 17 208 -1
236 -17 431 -38 481 -17 40 -13 90 12 163 14 44 26 461 13 481 -8 12 5 148 18
178 6 16 4 18 -12 14 -18 -5 -19 0 -18 63 2 62 -1 73 -27 109 -34 47 -36 68
-9 103 11 14 20 37 20 51 0 14 7 46 16 71 19 58 16 101 -8 99 -22 -2 -22 15 1
86 19 55 18 76 -1 64 -6 -4 -9 6 -7 27 2 19 -3 53 -10 76 -13 38 -12 48 8 102
13 35 23 92 26 140 2 45 7 86 11 93 4 6 -1 17 -11 24 -14 10 -18 25 -16 65 1
28 4 55 6 60 3 4 0 27 -6 51 -13 50 -12 198 2 214 5 7 14 86 18 175 5 90 12
175 17 188 6 21 4 23 -12 19 -17 -4 -19 1 -20 41 -1 43 -3 77 -6 126 -1 11 0
45 1 75 3 49 3 93 1 223 0 22 -5 47 -10 56 -6 12 -5 22 2 29 9 9 8 12 -6 12
-9 0 -15 4 -11 10 3 5 8 55 10 112 3 57 8 142 11 190 6 71 4 94 -11 130 -15
36 -18 74 -19 228 -1 102 3 216 7 255 6 49 5 81 -4 108 -9 27 -9 41 -1 49 6 6
7 19 2 32 -4 11 -6 67 -4 123 3 74 0 104 -9 110 -19 12 -37 50 -37 77 0 26 20
108 40 164 9 25 10 36 1 45 -14 14 -15 64 -1 72 6 3 10 31 10 62 0 47 -3 56
-21 60 -17 5 -19 11 -13 37 4 17 6 100 6 185 -1 85 2 159 6 165 10 17 11 210
0 223 -16 20 -17 85 -1 131 9 29 11 47 4 55 -16 20 -26 468 -11 509 11 29 10
40 -2 65 -11 23 -13 44 -8 79 4 27 4 71 0 99 -4 27 -4 62 1 78 10 37 0 88 -20
104 -26 19 -20 167 10 224 22 42 23 58 31 389 5 190 10 1133 11 2095 2 1651 1
1752 -16 1782 -12 22 -28 35 -55 42 -33 10 -335 12 -582 4z m490 -183 c5 -8
10 -22 10 -30 0 -13 -26 -15 -197 -13 -167 2 -199 5 -215 19 -10 10 -18 24
-18 31 0 22 406 15 420 -7z m-706 -6 c20 -8 20 -20 0 -28 -18 -7 -102 12 -110
25 -6 10 86 12 110 3z m-457 -28 c-8 -24 -177 -29 -177 -5 0 7 48 12 153 15
16 0 26 -4 24 -10z m-1077 -38 c0 -5 -16 -8 -35 -8 -43 0 -49 27 -7 32 25 3
41 -7 42 -24z m219 16 c7 -6 -2 -11 -31 -18 -27 -6 -39 10 -21 27 6 7 42 0 52
-9z m299 -1 c2 -8 -5 -13 -15 -13 -11 0 -24 -5 -30 -11 -12 -12 -93 -3 -93 10
0 4 6 13 12 19 17 17 120 12 126 -5z m-748 -3 c0 -5 -8 -10 -17 -10 -10 0 -28
-3 -40 -6 -17 -5 -23 -2 -23 10 0 12 10 16 40 16 22 0 40 -4 40 -10z m-581 -6
c17 -4 28 -10 25 -15 -8 -13 -44 -10 -79 6 l-30 13 26 1 c15 1 40 -2 58 -5z
m371 -4 c0 -5 -20 -10 -45 -10 -25 0 -45 5 -45 10 0 6 20 10 45 10 25 0 45 -4
45 -10z m-743 -27 c-16 -16 -18 -16 -34 0 -16 16 -15 17 17 17 32 0 33 -1 17
-17z m-5016 -8955 c5 -160 3 -248 -6 -245 -11 4 -26 209 -18 245 3 12 9 22 14
22 5 0 9 -10 10 -22z m9 -421 c0 -13 -6 -32 -14 -42 -13 -18 -14 -17 -21 13
-7 35 -1 52 21 52 8 0 14 -10 14 -23z m0 -593 c0 -14 -4 -23 -10 -19 -5 3 -10
15 -10 26 0 10 5 19 10 19 6 0 10 -12 10 -26z m-6 -318 c2 -36 0 -66 -4 -66
-9 0 -22 119 -14 132 11 17 15 2 18 -66z m16 -721 c0 -25 -23 -35 -35 -15 -10
16 2 40 20 40 9 0 15 -9 15 -25z m-20 -613 c0 -10 4 -22 10 -28 11 -11 14 -55
6 -101 -4 -25 -2 -31 9 -26 9 3 18 -4 24 -21 6 -14 19 -34 30 -45 10 -10 22
-30 26 -43 4 -12 19 -35 33 -50 38 -41 79 -38 133 11 l44 39 35 -37 c19 -20
49 -46 65 -57 55 -40 28 -46 -198 -42 -182 3 -208 5 -224 21 -16 15 -18 41
-21 207 -3 168 -2 190 12 190 9 0 16 -8 16 -18z m1977 -184 c-3 -8 -6 -5 -6 6
-1 11 2 17 5 13 3 -3 4 -12 1 -19z m1228 -39 c17 -10 44 -26 62 -35 63 -33 54
-68 -15 -58 -37 6 -59 18 -104 58 -52 47 -55 52 -35 57 28 8 54 2 92 -22z
m-1014 -45 c8 -60 6 -64 -33 -64 l-31 0 7 46 c3 26 6 55 6 65 0 15 4 17 23 10
17 -6 23 -19 28 -57z m1679 51 c9 -11 16 -12 25 -5 6 5 28 12 47 14 28 4 38 1
43 -12 10 -26 -19 -39 -108 -46 -45 -4 -122 -14 -170 -23 -89 -16 -112 -13
-86 11 21 20 173 70 225 75 6 1 17 -6 24 -14z m-981 -44 c23 -27 41 -52 41
-55 0 -3 -19 -6 -43 -6 -41 0 -43 1 -59 47 -13 36 -14 49 -5 55 20 13 23 10
66 -41z m-920 14 c5 -6 -9 -74 -17 -79 -4 -2 -34 -6 -67 -8 -49 -2 -60 0 -60
13 0 21 47 76 71 82 18 5 65 -1 73 -8z m458 -11 c7 -10 13 -30 13 -46 0 -25
-3 -28 -35 -28 -29 0 -35 4 -40 25 -16 78 -17 73 17 70 17 -1 37 -11 45 -21z
m247 1 c9 -13 16 -36 16 -50 0 -22 -4 -25 -39 -25 -46 0 -46 1 -56 58 l-7 42
35 0 c26 0 39 -6 51 -25z m-1274 -75 c13 -8 13 -10 0 -14 -30 -10 -180 -11
-177 -1 8 22 147 34 177 15z m-561 -33 c24 -11 22 -12 -33 -15 -60 -3 -84 7
-71 28 8 13 59 7 104 -13z"/>
</g>
</svg>
